<?xml version="1.0" encoding="UTF-8" standalone="no"?>
<!-- Created with Inkscape (http://www.inkscape.org/) -->

<svg
   width="180"
   height="180"
   viewBox="0 0 180 180"
   version="1.1"
   id="svg1"
   xml:space="preserve"
   sodipodi:docname="supplai-logo-white.svg"
   inkscape:version="1.4 (86a8ad7, 2024-10-11)"
   xmlns:inkscape="http://www.inkscape.org/namespaces/inkscape"
   xmlns:sodipodi="http://sodipodi.sourceforge.net/DTD/sodipodi-0.dtd"
   xmlns="http://www.w3.org/2000/svg"
   xmlns:svg="http://www.w3.org/2000/svg"><sodipodi:namedview
     id="namedview1"
     pagecolor="#d4bfa6"
     bordercolor="#000000"
     borderopacity="0.25"
     inkscape:showpageshadow="2"
     inkscape:pageopacity="0.0"
     inkscape:pagecheckerboard="0"
     inkscape:deskcolor="#d1d1d1"
     inkscape:document-units="px"
     showguides="true"
     inkscape:zoom="2.8284271"
     inkscape:cx="55.684659"
     inkscape:cy="82.90827"
     inkscape:window-width="1920"
     inkscape:window-height="1051"
     inkscape:window-x="-9"
     inkscape:window-y="-9"
     inkscape:window-maximized="1"
     inkscape:current-layer="layer1" /><defs
     id="defs1" /><g
     inkscape:label="Layer 1"
     inkscape:groupmode="layer"
     id="layer1"><g
       id="g27"
       inkscape:label="text-indiv"
       style="display:inline;fill:#ffffff"
       transform="translate(-0.400621,-3.0205075)"><path
         id="path25"
         style="font-weight:bold;font-size:34.5537px;font-family:k2d;-inkscape-font-specification:'k2d Bold';display:inline;fill:#ffffff;fill-opacity:1;stroke:#ffffff;stroke-width:0;paint-order:markers stroke fill"
         inkscape:label="p"
         d="m 90.088121,84.070312 c -1.313041,0 -2.302665,0.289335 -2.970703,0.865235 -0.668038,0.55285 -1.001953,1.255102 -1.001953,2.107422 v 21.837891 c 2.902511,0 4.353515,-0.96733 4.353515,-2.90234 v -5.11524 c 0.144485,-0.25974 0.894619,0.16957 1.658203,0.58789 0.921432,0.34554 1.807832,0.51953 2.660157,0.51953 1.336077,0 2.534098,-0.25493 3.593748,-0.76172 1.05965,-0.50679 1.889352,-1.231333 2.488292,-2.175777 0.62198,-0.944473 0.93361,-2.039263 0.93361,-3.283203 v -5.458984 c 0,-1.2209 -0.27722,-2.303577 -0.83009,-3.248047 -0.55287,-0.94447 -1.323932,-1.670945 -2.314472,-2.177735 -0.9675,-0.52982 -2.084588,-0.794922 -3.351557,-0.794922 -1.313041,10e-7 -2.419962,0.254939 -3.318359,0.761719 -0.824411,0.53665 -1.851871,1.426489 -1.900391,1.105469 z m 3.871094,3.732422 c 1.15179,0 2.026069,0.242813 2.625,0.726563 0.621963,0.46072 0.933593,1.138709 0.933593,2.037109 v 4.908203 c 0,0.87536 -0.31163,1.55336 -0.933593,2.03711 -0.621966,0.48375 -1.496245,0.726562 -2.625,0.726562 -1.059647,0 -1.923759,-0.252975 -2.591797,-0.759765 -0.645003,-0.50679 -0.966797,-1.117922 -0.966797,-1.832032 v -5.251953 c 0,-0.73715 0.333914,-1.348271 1.001953,-1.832031 0.668038,-0.50678 1.52003,-0.759766 2.556641,-0.759766 z" /><path
         id="path23"
         style="font-weight:bold;font-size:34.5537px;font-family:k2d;-inkscape-font-specification:'k2d Bold';display:inline;fill:#ffffff;fill-opacity:1;stroke:#ffffff;stroke-width:0;paint-order:markers stroke fill"
         inkscape:label="p"
         d="m 72.476292,84.07031 c -1.313041,0 -2.302665,0.289334 -2.970703,0.865234 -0.668038,0.55285 -1.001953,1.255102 -1.001953,2.107422 v 21.837894 c 2.902511,0 4.353516,-0.96734 4.353516,-2.90235 v -5.11523 c 0.144485,-0.25974 0.894619,0.16957 1.658203,0.58789 0.921432,0.34554 1.807831,0.51758 2.660156,0.51758 1.336077,0 2.534103,-0.25298 3.59375,-0.75977 1.059646,-0.50679 1.889351,-1.231325 2.488281,-2.17578 0.62197,-0.94447 0.931641,-2.039263 0.931641,-3.283203 v -5.458984 c 0,-1.2209 -0.275265,-2.303577 -0.828125,-3.248047 -0.55286,-0.94447 -1.323916,-1.670944 -2.314453,-2.177734 -0.967503,-0.52982 -2.086547,-0.794922 -3.353516,-0.794922 -1.313041,0 -2.418009,0.252985 -3.316406,0.759765 -0.824411,0.53665 -1.851871,1.428442 -1.900391,1.107422 z m 3.871094,3.732422 c 1.15179,0 2.026069,0.240859 2.625,0.724609 0.621967,0.46072 0.933594,1.140663 0.933594,2.039062 v 4.90625 c 0,0.875361 -0.311627,1.555313 -0.933594,2.039063 -0.621966,0.48375 -1.496245,0.726563 -2.625,0.726563 -1.059647,0 -1.923759,-0.252976 -2.591797,-0.759766 -0.645003,-0.50679 -0.96875,-1.117921 -0.96875,-1.832031 v -5.251953 c 0,-0.73715 0.333914,-1.348272 1.001953,-1.832032 0.668038,-0.50678 1.521983,-0.759765 2.558594,-0.759765 z" /><path
         style="font-weight:bold;font-size:34.5537px;font-family:k2d;-inkscape-font-specification:'k2d Bold';display:inline;fill:#ffffff;fill-opacity:1;stroke:#ffffff;stroke-width:0;paint-order:markers stroke fill"
         d="m 140.82403,86.641773 c 0,-0.944468 0.35705,-1.612506 1.07116,-2.004115 0.71411,-0.414644 1.7968,-0.621966 3.24805,-0.621966 v 15.272735 c 0,0.921423 -0.35705,1.589463 -1.07116,2.004103 -0.71411,0.41465 -1.7968,0.62197 -3.24805,0.62197 z"
         id="path21"
         inkscape:label="i" /><path
         id="path20"
         style="font-weight:bold;font-size:34.5537px;font-family:k2d;-inkscape-font-specification:'k2d Bold';display:inline;fill:#ffffff;fill-opacity:1;stroke:#ffffff;stroke-width:0;paint-order:markers stroke fill"
         inkscape:label="a"
         d="m 131.0332,84.015625 c -1.24393,0 -2.39542,0.172041 -3.45508,0.517578 -1.05965,0.345537 -1.89951,0.806918 -2.52148,1.382813 -0.62197,0.575895 -0.93359,1.209316 -0.93359,1.90039 0,0.414644 0.17205,0.807209 0.51757,1.175782 0.34555,0.345536 0.77251,0.598514 1.2793,0.759765 1.01357,-1.566435 2.59205,-2.349609 4.73438,-2.349609 1.19786,0 2.1308,0.275266 2.79882,0.828125 0.66805,0.552859 1.00196,1.301626 1.00196,2.246093 v 0.691407 c 0,0.194255 -0.59885,-0.0564 -1.45117,-0.378907 -0.82929,-0.345536 -1.77434,-0.519531 -2.83399,-0.519531 -1.29,0 -2.4759,0.242811 -3.55859,0.726563 -1.05965,0.460716 -1.90147,1.140666 -2.52344,2.039062 -0.62197,0.875361 -0.93164,1.911514 -0.93164,3.109375 0,1.197862 0.28739,2.234015 0.86328,3.109375 0.59893,0.852324 1.3821,1.508034 2.34961,1.968754 0.99054,0.46071 2.07323,0.6914 3.24805,0.6914 1.33608,0 2.43087,-0.20644 3.2832,-0.62109 0.88503,-0.31638 1.91221,-1.371912 1.87891,-0.80078 l -0.082,1.42187 c 1.38215,0 2.39601,-0.23069 3.04101,-0.6914 0.64501,-0.46072 0.9668,-1.19737 0.9668,-2.210941 v -8.638672 c 0,-1.958043 -0.66783,-3.500152 -2.00391,-4.628906 -1.33607,-1.15179 -3.22618,-1.728516 -5.66797,-1.728516 z m -0.27539,9.398437 c 1.15179,0 2.06048,0.242811 2.72852,0.726563 0.69107,0.483751 1.03711,1.139461 1.03711,1.96875 0,0.852325 -0.33392,1.508034 -1.00196,1.96875 -0.66804,0.460716 -1.60096,0.691406 -2.79882,0.691406 -1.05965,0 -1.88936,-0.21857 -2.48828,-0.65625 -0.59894,-0.460716 -0.89844,-1.128545 -0.89844,-2.003906 0,-0.852324 0.29951,-1.508034 0.89844,-1.96875 0.62197,-0.483752 1.46378,-0.726563 2.52343,-0.726563 z" /><path
         style="font-weight:bold;font-size:34.5537px;font-family:k2d;-inkscape-font-specification:'k2d Bold';display:inline;fill:#ffffff;fill-opacity:1;stroke:#ffffff;stroke-width:0;paint-order:markers stroke fill"
         d="m 118.54156,101.91452 c -0.76019,0 -1.40519,-0.24188 -1.93501,-0.72563 -0.50679,-0.50679 -0.76018,-1.14027 -0.76018,-1.900453 0,-0.760181 0.25339,-1.393666 0.76018,-1.900454 0.52982,-0.529823 1.17482,-0.794735 1.93501,-0.794735 0.73714,0 1.37062,0.264912 1.90045,0.794735 0.55286,0.506788 0.82929,1.140273 0.82929,1.900454 0,0.737143 -0.27643,1.359113 -0.82929,1.865903 -0.52983,0.50679 -1.16331,0.76018 -1.90045,0.76018 z"
         id="path18"
         inkscape:label="." /><path
         style="font-weight:bold;font-size:34.5537px;font-family:k2d;-inkscape-font-specification:'k2d Bold';display:inline;fill:#ffffff;fill-opacity:1;stroke:#ffffff;stroke-width:0;paint-order:markers stroke fill"
         d="m 109.53832,101.91451 c -1.91197,0 -3.36323,-0.54134 -4.35376,-1.62402 -0.96751,-1.105723 -1.45126,-2.49939 -1.45126,-4.181004 V 79.731033 c 0,-0.944468 0.34554,-1.612506 1.03661,-2.004115 0.71411,-0.414644 1.80831,-0.621966 3.2826,-0.621966 v 18.831766 c 0,0.783217 0.17277,1.359112 0.51831,1.727685 0.34553,0.345537 0.89839,0.518305 1.65858,0.518305 0.85232,0 1.70464,-0.21884 2.55697,-0.65652 0.23036,0.207322 0.40313,0.472234 0.5183,0.794735 0.13822,0.299465 0.20733,0.610449 0.20733,0.93295 0,0.691077 -0.34554,1.313047 -1.03661,1.865897 -0.69108,0.52983 -1.6701,0.79474 -2.93707,0.79474 z"
         id="path17"
         inkscape:label="l" /><path
         style="font-weight:bold;font-size:34.5537px;font-family:k2d;-inkscape-font-specification:'k2d Bold';display:inline;fill:#ffffff;fill-opacity:1;stroke:#ffffff;stroke-width:0;paint-order:markers stroke fill"
         d="m 66.340989,98.562798 c 0,1.082686 -0.345537,1.911982 -1.036611,2.487872 -0.668038,0.57589 -1.693131,0.86384 -3.075279,0.86384 v -2.073225 c -0.687845,0.231045 -1.853012,2.107505 -5.32127,2.073225 -1.174769,-0.0116 -2.234473,-0.26491 -3.178941,-0.79474 -0.921431,-0.55285 -1.658577,-1.313036 -2.211436,-2.280542 -0.529823,-0.967504 -0.794735,-2.061705 -0.794735,-3.282602 v -8.914854 c 0,-0.944468 0.345537,-1.612506 1.036611,-2.004115 0.714109,-0.414644 1.796792,-0.621966 3.248047,-0.621966 v 11.229952 c 0,0.898396 0.27643,1.612506 0.829289,2.142329 0.552859,0.529823 1.347594,0.794735 2.384205,0.794735 1.15179,0 2.073222,-0.357055 2.764296,-1.071164 0.71411,-0.737146 1.071165,-1.64706 1.071165,-2.729742 v -7.740029 c 0,-0.944468 0.345537,-1.612506 1.036611,-2.004115 0.691074,-0.414644 1.773757,-0.621966 3.248048,-0.621966 z"
         id="path16"
         inkscape:label="u" /><path
         style="font-weight:bold;font-size:34.5537px;font-family:k2d;-inkscape-font-specification:'k2d Bold';display:inline;fill:#ffffff;fill-opacity:1;stroke:#ffffff;stroke-width:0;paint-order:markers stroke fill"
         d="m 41.193939,101.78974 c -2.211437,0 -3.996711,-0.39161 -5.355823,-1.17483 -1.336077,-0.806246 -2.015633,-1.877413 -2.038668,-3.21349 0,-0.575895 0.230358,-1.059646 0.691074,-1.451255 0.483751,-0.391609 1.243933,-0.598931 2.280544,-0.621967 0.207322,1.013575 0.691074,1.796793 1.451255,2.349652 0.760181,0.529823 1.681613,0.794735 2.764296,0.794735 1.174826,0 2.096258,-0.149733 2.764296,-0.449198 0.668038,-0.299465 1.002057,-0.748664 1.002057,-1.347595 0,-0.552859 -0.276429,-1.013574 -0.829288,-1.382147 -0.529824,-0.368573 -1.589471,-0.737146 -3.178941,-1.105719 -1.727685,-0.414644 -3.075279,-0.829288 -4.042783,-1.243933 -0.944467,-0.414645 -1.647059,-0.944468 -2.107775,-1.58947 -0.460716,-0.645003 -0.691074,-1.497327 -0.691074,-2.556974 0,-1.474291 0.621967,-2.660635 1.8659,-3.559031 1.243933,-0.898396 2.948582,-1.347594 5.113947,-1.347594 2.096258,0 3.835461,0.380091 5.217609,1.140272 1.382148,0.737145 2.073222,1.727685 2.073222,2.971618 0,0.621967 -0.230358,1.082683 -0.691074,1.382148 -0.460716,0.299465 -1.220898,0.460716 -2.280545,0.483752 -0.230358,-0.921432 -0.668038,-1.612506 -1.31304,-2.073222 -0.645003,-0.460716 -1.554917,-0.691074 -2.729742,-0.691074 -0.875361,0 -1.635542,0.149733 -2.280545,0.449198 -0.621966,0.299465 -0.932949,0.691074 -0.932949,1.174826 0,0.506787 0.264912,0.898396 0.794735,1.174825 0.529823,0.27643 1.451255,0.55286 2.764296,0.829289 2.580009,0.552859 4.445909,1.290005 5.597699,2.211437 1.174826,0.921432 1.762239,2.176883 1.762239,3.766353 0,1.543399 -0.691074,2.775813 -2.073222,3.697244 -1.359113,0.92143 -3.225013,1.38215 -5.5977,1.38215 z"
         id="text2"
         inkscape:label="s" /></g><path
       style="display:inline;fill:#ffffff;fill-opacity:1;fill-rule:nonzero;stroke-width:0.738839"
       d="m 137.29466,73.390667 c 2.17938,-0.273919 3.7108,0.462857 4.60969,1.681137 0.8026,1.087765 0.60976,2.329124 0.52817,2.52095 -0.39639,-0.430198 -1.75633,-2.11011 -4.01592,-3.230483 1.73042,1.32754 3.17212,2.606746 3.85604,3.42733 -0.74551,0.736919 -2.29769,0.485063 -3.05955,-0.02176 -1.56044,-1.038061 -1.85877,-2.564535 -1.91843,-4.377176 z m 9.9985,-1.474987 c -1.68471,2.164438 -2.28296,3.788531 -4.05993,5.723011 -1.07846,-1.556861 -0.92539,-3.461045 -0.10486,-4.856276 0.93331,-1.587011 3.30046,-2.604532 5.31458,-2.721059 0.47543,2.547934 0.2407,4.391184 -1.00933,5.979823 -0.86123,1.094528 -2.96915,1.837754 -3.84075,1.645003 1.51047,-1.523257 2.85781,-3.588262 3.70029,-5.770502 z"
       id="path3"
       sodipodi:nodetypes="cscccscccscacc"
       inkscape:label="leaf" /></g></svg>
